<?xml version="1.0" standalone="no"?>
<!DOCTYPE svg PUBLIC "-//W3C//DTD SVG 20010904//EN"
 "http://www.w3.org/TR/2001/REC-SVG-20010904/DTD/svg10.dtd">
<svg version="1.0" xmlns="http://www.w3.org/2000/svg"
 width="1676.000000pt" height="370.000000pt" viewBox="0 0 1676.000000 370.000000"
 preserveAspectRatio="xMidYMid meet">
<metadata>
Created by potrace 1.16, written by Peter Selinger 2001-2019
</metadata>
<g transform="translate(0.000000,370.000000) scale(0.100000,-0.100000)"
fill="#000000" stroke="none">
<path d="M13380 2180 l0 -1510 250 0 250 0 0 660 0 660 485 0 486 0 -2 168 -1
167 116 3 116 3 0 514 0 515 -117 0 -118 0 3 165 3 165 -735 0 -736 0 0 -1510z
m1195 665 l0 -485 -347 0 -348 0 0 485 0 485 348 0 347 0 0 -485z"/>
<path d="M15540 3525 l0 -165 -125 0 -125 0 0 -1190 0 -1190 125 0 125 0 0
-155 0 -155 610 0 610 0 0 345 0 345 -480 0 -480 0 0 985 0 985 480 0 480 0 0
180 0 180 -610 0 -610 0 0 -165z"/>
<path d="M5390 3668 c-1 -7 -1 -74 0 -149 0 -74 -2 -143 -6 -152 -5 -15 -22
-17 -113 -17 -70 0 -111 -4 -119 -12 -17 -17 -17 -2299 0 -2316 8 -8 49 -12
119 -12 91 0 108 -2 113 -17 4 -9 6 -78 6 -152 -1 -75 -1 -142 0 -148 0 -10
127 -13 600 -13 l600 0 0 335 0 335 -480 0 -480 0 0 995 c0 789 3 995 13 995
6 0 221 1 477 3 l465 2 3 168 2 167 -600 0 c-473 0 -600 -3 -600 -12z"/>
<path d="M1353 3604 c-18 -9 -43 -33 -55 -53 l-23 -36 0 -1025 c0 -962 1
-1027 18 -1057 38 -71 0 -67 717 -73 l645 -5 3 -129 c2 -87 -1 -133 -9 -142
-10 -12 -59 -14 -277 -14 -146 1 -268 -2 -272 -7 -13 -14 -62 -222 -55 -233 6
-10 2066 -15 2077 -5 3 3 -11 59 -31 125 l-36 119 -270 3 -270 3 -3 142 -3
143 638 0 c615 0 639 1 670 20 67 40 63 -28 63 1112 0 993 -1 1034 -19 1064
-42 69 96 64 -1783 64 -1531 0 -1696 -2 -1725 -16z m3357 -1111 l0 -928 -1627
2 c-896 2 -1631 3 -1635 3 -9 0 -11 1811 -2 1834 6 15 159 16 1635 16 l1629 0
0 -927z"/>
<path d="M8536 3341 c-4 -6 -9 -2162 -6 -2648 0 -10 127 -13 600 -13 l600 0 2
163 3 162 118 3 117 3 0 499 0 500 -109 0 c-78 0 -112 4 -120 13 -6 8 -12 75
-13 168 l-3 154 -357 3 -358 2 -2 498 -3 497 -232 3 c-132 1 -234 -2 -237 -7z
m954 -1826 c0 -272 -3 -495 -7 -495 -5 0 -111 -1 -238 -1 l-230 -1 -3 496 -2
496 240 0 240 0 0 -495z"/>
<path d="M179 2911 l-29 -29 0 -1304 c0 -1219 2 -1304 18 -1324 34 -43 47 -44
400 -44 328 0 340 1 366 21 14 11 31 29 36 39 14 26 14 2584 0 2610 -5 10 -22
28 -36 39 -26 20 -37 21 -376 21 l-350 0 -29 -29z m759 -248 c3 -10 -77 -13
-377 -13 -210 0 -381 4 -381 8 0 5 3 12 7 15 4 4 173 6 376 5 286 -2 371 -6
375 -15z m-3 -113 c0 -13 -48 -15 -364 -18 -214 -1 -369 2 -374 7 -27 27 13
30 371 28 319 -2 367 -4 367 -17z m3 -112 c3 -17 -20 -18 -367 -18 -236 0
-372 4 -376 10 -17 28 16 30 373 28 340 -3 367 -4 370 -20z m2 -113 c0 -13
-48 -15 -375 -15 -327 0 -375 2 -375 15 0 13 48 15 375 15 327 0 375 -2 375
-15z m-2 -112 c-3 -17 -29 -18 -373 -18 -344 0 -370 1 -373 18 -3 16 20 17
373 17 353 0 376 -1 373 -17z"/>
<path d="M6840 2338 c-4 -383 2 -1314 7 -1319 5 -5 58 -10 118 -11 l110 -3 3
-162 2 -163 360 0 360 0 0 -165 0 -165 -360 0 -360 0 2 -168 3 -167 455 -3
c250 -1 465 0 478 3 22 5 22 8 22 158 0 106 4 157 12 165 8 8 49 12 120 12
l108 0 0 1000 0 1000 -237 -2 -238 -3 -3 -662 c-1 -430 -6 -663 -12 -663 -13
-1 -447 -1 -460 0 -6 0 -11 233 -12 663 l-3 662 -237 3 c-187 2 -238 0 -238
-10z"/>
<path d="M10460 2196 c0 -85 -3 -161 -6 -170 -5 -13 -25 -16 -120 -16 l-114 0
2 -497 3 -498 115 -5 115 -5 3 -162 2 -163 599 0 c537 0 599 2 605 16 10 27 7
284 -4 305 -11 19 -25 19 -473 19 -254 0 -468 0 -475 0 -10 0 -12 36 -10 163
l3 162 357 3 358 2 2 163 3 162 117 3 c112 2 118 4 123 25 3 12 4 85 3 162
l-3 140 -120 5 -120 5 -5 165 -5 165 -477 3 -478 2 0 -154z m960 -351 l0 -165
-357 2 -358 3 -3 163 -2 162 360 0 360 0 0 -165z"/>
<path d="M11917 2344 c-4 -4 -7 -380 -7 -836 l0 -828 238 2 237 3 3 662 2 663
358 2 357 3 3 168 2 167 -357 -2 -358 -3 -5 -165 -5 -165 -115 0 -115 0 -5
165 -5 165 -111 3 c-60 1 -113 -1 -117 -4z"/>
<path d="M1530 697 c-57 -20 -72 -55 -114 -268 -21 -107 -42 -218 -48 -246
-14 -68 1 -124 41 -152 29 -21 32 -21 1688 -21 l1659 0 26 27 c48 51 50 95 13
263 -80 365 -86 381 -153 400 -57 15 -3066 13 -3112 -3z"/>
</g>
</svg>
